<?xml version="1.0" encoding="UTF-8"?>
<svg xmlns="http://www.w3.org/2000/svg" xmlns:xlink="http://www.w3.org/1999/xlink" width="40px" height="40px" viewBox="0 0 40 40" version="1.1">
<g id="surface1">
<path style=" stroke:none;fill-rule:nonzero;fill:rgb(87.843138%,58.039218%,5.882353%);fill-opacity:1;" d="M 39.347656 4.265625 C 40.214844 3.289062 40.214844 1.703125 39.347656 0.726562 C 38.480469 -0.25 37.070312 -0.25 36.203125 0.726562 L 22.867188 15.726562 L 20.457031 13.015625 C 20.167969 12.6875 19.765625 12.5 19.347656 12.5 C 18.480469 12.5 17.777344 13.289062 17.777344 14.265625 L 17.777344 16.539062 L 25.296875 25 L 27.320312 25 C 28.1875 25 28.890625 24.210938 28.890625 23.234375 C 28.890625 22.765625 28.722656 22.3125 28.429688 21.984375 L 26.019531 19.273438 L 39.355469 4.273438 Z M 23.6875 27.609375 L 15.457031 18.351562 C 12.492188 18.0625 9.542969 19.265625 7.417969 21.65625 L 6.859375 22.28125 C 5.3125 24.023438 4.445312 26.382812 4.445312 28.84375 C 4.445312 29.375 4.9375 29.71875 5.359375 29.484375 L 8.910156 27.492188 C 9.257812 27.296875 9.570312 27.8125 9.285156 28.109375 L 0.507812 36.984375 C 0.1875 37.3125 0 37.78125 0 38.273438 C 0 39.226562 0.6875 40 1.535156 40 L 13.570312 40 C 16.265625 40 18.839844 38.796875 20.75 36.65625 C 22.875 34.265625 23.9375 30.945312 23.6875 27.609375 Z M 23.6875 27.609375 "/>
</g>
</svg>
