<?xml version="1.0" encoding="UTF-8"?>
<svg xmlns="http://www.w3.org/2000/svg" xmlns:xlink="http://www.w3.org/1999/xlink" width="40px" height="40px" viewBox="0 0 40 40" version="1.1">
<g id="surface1">
<path style=" stroke:none;fill-rule:nonzero;fill:rgb(87.843138%,58.039218%,5.882353%);fill-opacity:1;" d="M 6.667969 0 C 5.4375 0 4.445312 1.117188 4.445312 2.5 L 4.445312 10 L 8.890625 10 L 8.890625 2.5 C 8.890625 1.117188 7.894531 0 6.667969 0 Z M 20 0 C 18.769531 0 17.777344 1.117188 17.777344 2.5 L 17.777344 10 L 22.222656 10 L 22.222656 2.5 C 22.222656 1.117188 21.230469 0 20 0 Z M 2.222656 12.5 C 0.992188 12.5 0 13.617188 0 15 C 0 16.382812 0.992188 17.5 2.222656 17.5 L 2.222656 20 C 2.222656 26.046875 6.042969 31.09375 11.109375 32.25 L 11.109375 37.5 C 11.109375 38.882812 12.105469 40 13.332031 40 C 14.5625 40 15.554688 38.882812 15.554688 37.5 L 15.554688 32.25 C 16.410156 32.054688 17.230469 31.75 17.992188 31.351562 C 17.847656 30.507812 17.777344 29.640625 17.777344 28.75 C 17.777344 22.476562 21.515625 17.1875 26.617188 15.53125 C 26.652344 15.359375 26.667969 15.179688 26.667969 15 C 26.667969 13.617188 25.671875 12.5 24.445312 12.5 Z M 40 28.75 C 40 22.535156 35.523438 17.5 30 17.5 C 24.476562 17.5 20 22.535156 20 28.75 C 20 34.964844 24.476562 40 30 40 C 35.523438 40 40 34.964844 40 28.75 Z M 34.671875 25.367188 C 35.105469 25.851562 35.105469 26.648438 34.671875 27.132812 L 29.671875 32.757812 C 29.242188 33.242188 28.535156 33.242188 28.105469 32.757812 L 25.328125 29.632812 C 24.894531 29.148438 24.894531 28.351562 25.328125 27.867188 C 25.757812 27.382812 26.464844 27.382812 26.894531 27.867188 L 28.890625 30.109375 L 33.105469 25.367188 C 33.535156 24.882812 34.242188 24.882812 34.671875 25.367188 Z M 34.671875 25.367188 "/>
</g>
</svg>
