<?xml version="1.0" encoding="UTF-8"?>
<svg xmlns="http://www.w3.org/2000/svg" xmlns:xlink="http://www.w3.org/1999/xlink" width="40px" height="40px" viewBox="0 0 40 40" version="1.1">
<g id="surface1">
<path style=" stroke:none;fill-rule:nonzero;fill:rgb(87.843138%,58.039218%,5.882353%);fill-opacity:1;" d="M 6.140625 0.390625 C 5.398438 -0.1875 4.34375 -0.117188 3.671875 0.546875 L 0.546875 3.671875 C -0.117188 4.335938 -0.1875 5.390625 0.382812 6.140625 L 6.632812 14.265625 C 6.984375 14.726562 7.539062 15 8.117188 15 L 12.34375 15 L 20.859375 23.515625 C 19.710938 25.78125 20.078125 28.625 21.976562 30.515625 L 30.726562 39.265625 C 31.703125 40.242188 33.289062 40.242188 34.265625 39.265625 L 39.265625 34.265625 C 40.242188 33.289062 40.242188 31.703125 39.265625 30.726562 L 30.515625 21.976562 C 28.625 20.085938 25.78125 19.710938 23.515625 20.859375 L 15 12.34375 L 15 8.117188 C 15 7.53125 14.726562 6.984375 14.265625 6.632812 Z M 1.554688 30.945312 C 0.5625 31.9375 0 33.289062 0 34.695312 C 0 37.625 2.375 40 5.304688 40 C 6.710938 40 8.0625 39.4375 9.054688 38.445312 L 18.257812 29.242188 C 17.648438 27.609375 17.554688 25.835938 17.976562 24.15625 L 13.15625 19.335938 Z M 40 11.25 C 40 10.429688 39.914062 9.632812 39.75 8.867188 C 39.5625 7.992188 38.492188 7.765625 37.859375 8.398438 L 32.867188 13.390625 C 32.632812 13.625 32.3125 13.757812 31.984375 13.757812 L 27.5 13.75 C 26.8125 13.75 26.25 13.1875 26.25 12.5 L 26.25 8.015625 C 26.25 7.6875 26.382812 7.367188 26.617188 7.132812 L 31.609375 2.140625 C 32.242188 1.507812 32.015625 0.4375 31.140625 0.25 C 30.367188 0.0859375 29.570312 0 28.75 0 C 22.539062 0 17.5 5.039062 17.5 11.25 L 17.5 11.3125 L 24.164062 17.976562 C 26.976562 17.265625 30.085938 18.015625 32.289062 20.21875 L 33.515625 21.445312 C 37.34375 19.648438 40 15.757812 40 11.25 Z M 4.375 33.75 C 4.375 32.714844 5.214844 31.875 6.25 31.875 C 7.285156 31.875 8.125 32.714844 8.125 33.75 C 8.125 34.785156 7.285156 35.625 6.25 35.625 C 5.214844 35.625 4.375 34.785156 4.375 33.75 Z M 4.375 33.75 "/>
</g>
</svg>
