<?xml version="1.0" encoding="UTF-8"?>
<svg xmlns="http://www.w3.org/2000/svg" xmlns:xlink="http://www.w3.org/1999/xlink" width="40px" height="40px" viewBox="0 0 40 45" version="1.1">
<g id="surface1">
<path style=" stroke:none;fill-rule:nonzero;fill:rgb(100%,100%,100%);fill-opacity:1;" d="M 20.007812 12.390625 C 14.332031 12.390625 9.75 16.902344 9.75 22.492188 C 9.75 28.082031 14.332031 32.589844 20.007812 32.589844 C 25.6875 32.589844 30.269531 28.082031 30.269531 22.492188 C 30.269531 16.902344 25.6875 12.390625 20.007812 12.390625 Z M 20.007812 29.058594 C 16.339844 29.058594 13.339844 26.113281 13.339844 22.492188 C 13.339844 18.871094 16.332031 15.925781 20.007812 15.925781 C 23.6875 15.925781 26.679688 18.871094 26.679688 22.492188 C 26.679688 26.113281 23.679688 29.058594 20.007812 29.058594 Z M 33.082031 11.980469 C 33.082031 13.289062 32.007812 14.335938 30.6875 14.335938 C 29.355469 14.335938 28.292969 13.28125 28.292969 11.980469 C 28.292969 10.679688 29.367188 9.625 30.6875 9.625 C 32.007812 9.625 33.082031 10.679688 33.082031 11.980469 Z M 39.875 14.371094 C 39.722656 11.214844 38.992188 8.421875 36.644531 6.117188 C 34.304688 3.8125 31.464844 3.09375 28.257812 2.933594 C 24.957031 2.75 15.054688 2.75 11.75 2.933594 C 8.554688 3.085938 5.714844 3.804688 3.367188 6.109375 C 1.019531 8.410156 0.292969 11.207031 0.132812 14.359375 C -0.0546875 17.613281 -0.0546875 27.359375 0.132812 30.613281 C 0.285156 33.765625 1.019531 36.5625 3.367188 38.867188 C 5.714844 41.167969 8.542969 41.890625 11.75 42.046875 C 15.054688 42.230469 24.957031 42.230469 28.257812 42.046875 C 31.464844 41.898438 34.304688 41.175781 36.644531 38.867188 C 38.980469 36.5625 39.714844 33.769531 39.875 30.613281 C 40.0625 27.359375 40.0625 17.621094 39.875 14.371094 Z M 35.605469 34.101562 C 34.910156 35.824219 33.5625 37.152344 31.804688 37.84375 C 29.167969 38.875 22.917969 38.636719 20.007812 38.636719 C 17.097656 38.636719 10.839844 38.867188 8.214844 37.84375 C 6.464844 37.160156 5.117188 35.832031 4.410156 34.101562 C 3.367188 31.507812 3.605469 25.355469 3.605469 22.492188 C 3.605469 19.625 3.375 13.464844 4.410156 10.882812 C 5.105469 9.160156 6.457031 7.832031 8.214844 7.136719 C 10.847656 6.109375 17.097656 6.347656 20.007812 6.347656 C 22.917969 6.347656 29.179688 6.117188 31.804688 7.136719 C 33.554688 7.824219 34.902344 9.148438 35.605469 10.882812 C 36.652344 13.472656 36.410156 19.625 36.410156 22.492188 C 36.410156 25.355469 36.652344 31.519531 35.605469 34.101562 Z M 35.605469 34.101562 "/>
</g>
</svg>
