<?xml version="1.0" encoding="UTF-8"?>
<svg xmlns="http://www.w3.org/2000/svg" xmlns:xlink="http://www.w3.org/1999/xlink" width="40px" height="40px" viewBox="0 0 40 45" version="1.1">
<g id="surface1">
<path style=" stroke:none;fill-rule:nonzero;fill:rgb(100%,100%,100%);fill-opacity:1;" d="M 34.007812 8.535156 C 30.269531 4.84375 25.285156 2.8125 19.992188 2.8125 C 9.0625 2.8125 0.167969 11.566406 0.167969 22.324219 C 0.167969 25.761719 1.082031 29.117188 2.8125 32.078125 L 0 42.1875 L 10.507812 39.472656 C 13.402344 41.027344 16.660156 41.84375 19.980469 41.84375 L 19.992188 41.84375 C 30.910156 41.84375 40 33.089844 40 22.332031 C 40 17.121094 37.75 12.226562 34.007812 8.535156 Z M 19.992188 38.558594 C 17.027344 38.558594 14.125 37.777344 11.597656 36.300781 L 11 35.949219 L 4.769531 37.554688 L 6.429688 31.570312 L 6.035156 30.953125 C 4.382812 28.371094 3.519531 25.390625 3.519531 22.324219 C 3.519531 13.386719 10.910156 6.109375 20 6.109375 C 24.402344 6.109375 28.535156 7.796875 31.644531 10.863281 C 34.75 13.929688 36.660156 18 36.652344 22.332031 C 36.652344 31.28125 29.070312 38.558594 19.992188 38.558594 Z M 29.027344 26.410156 C 28.535156 26.164062 26.097656 24.988281 25.644531 24.828125 C 25.1875 24.664062 24.855469 24.582031 24.527344 25.074219 C 24.195312 25.566406 23.25 26.65625 22.957031 26.992188 C 22.667969 27.316406 22.375 27.359375 21.882812 27.113281 C 18.972656 25.683594 17.0625 24.558594 15.144531 21.3125 C 14.632812 20.453125 15.652344 20.515625 16.597656 18.652344 C 16.757812 18.324219 16.679688 18.042969 16.554688 17.796875 C 16.429688 17.550781 15.4375 15.152344 15.027344 14.175781 C 14.625 13.226562 14.214844 13.359375 13.910156 13.34375 C 13.625 13.324219 13.292969 13.324219 12.964844 13.324219 C 12.632812 13.324219 12.097656 13.449219 11.644531 13.929688 C 11.1875 14.421875 9.910156 15.601562 9.910156 18 C 9.910156 20.398438 11.6875 22.71875 11.929688 23.046875 C 12.179688 23.371094 15.417969 28.292969 20.394531 30.410156 C 23.535156 31.746094 24.769531 31.859375 26.339844 31.632812 C 27.292969 31.492188 29.269531 30.453125 29.679688 29.3125 C 30.089844 28.167969 30.089844 27.195312 29.964844 26.992188 C 29.847656 26.773438 29.519531 26.648438 29.027344 26.410156 Z M 29.027344 26.410156 "/>
</g>
</svg>
